# xmcd
#
# Track frame offsets:
# 182
# 13307
# 24440
# 35810
# 48930
# 58522
# 72872
# 88335
# 102665
# 112580
# 128572
# 138022
# 152517
# 167895
# 179992
# 197722
# 210485
# 223660
# 236265
# 248697
#
# Disc length: 3448 seconds
#
# Revision: 1
# Processed by: cddbd v1.5.1PL0 Copyright (c) Steve Scherf et al.
# Submitted via: CdCzar 5.6
#
DISCID=170d7614
DTITLE=Val Doonican - Portrait of my Love
DYEAR=1900
DGENRE=country
TTITLE0=Things
TTITLE1=Walking in the sunshine
TTITLE2=Morning of my life
TTITLE3=He'll have to go
TTITLE4=Sing a rainbow
TTITLE5=Portrait of my love
TTITLE6=Small World
TTITLE7=A man chases a girl
TTITLE8=King of the road
TTITLE9=Scarlet ribbons
TTITLE10=Snowbird
TTITLE11=I'm just a country boy
TTITLE12=Little green apples
TTITLE13=My cup runneth over
TTITLE14=You and me against the world
TTITLE15=The folks who live on the hill
TTITLE16=All I ever need is you
TTITLE17=Try to remember
TTITLE18=Mysterious people
TTITLE19=Annie's song
EXTD=
EXTT0=
EXTT1=
EXTT2=
EXTT3=
EXTT4=
EXTT5=
EXTT6=
EXTT7=
EXTT8=
EXTT9=
EXTT10=
EXTT11=
EXTT12=
EXTT13=
EXTT14=
EXTT15=
EXTT16=
EXTT17=
EXTT18=
EXTT19=
PLAYORDER=
